<mxfile host="app.diagrams.net" agent="Mozilla/5.0 (Windows NT 10.0; Win64; x64; rv:135.0) Gecko/20100101 Firefox/135.0" version="26.0.16">
  <diagram name="Page-1" id="Ykw0tnQGzgniFtMDhd3j">
    <mxGraphModel dx="1380" dy="630" grid="1" gridSize="10" guides="1" tooltips="1" connect="1" arrows="1" fold="1" page="1" pageScale="1" pageWidth="500" pageHeight="150" math="1" shadow="0">
      <root>
        <mxCell id="0" />
        <mxCell id="1" parent="0" />
        <mxCell id="hjdBpJjyIPGbq1nmFeGQ-1" value="$$\text{Margen}$$" style="rounded=1;whiteSpace=wrap;html=1;fillColor=#ACACAC;strokeWidth=2;" vertex="1" parent="1">
          <mxGeometry x="-120" y="-120" width="240" height="80" as="geometry" />
        </mxCell>
        <mxCell id="hjdBpJjyIPGbq1nmFeGQ-2" value="$$\text{SelecciÃ³n}$$" style="rounded=1;whiteSpace=wrap;html=1;fillColor=#E1DFD2;strokeWidth=2;" vertex="1" parent="1">
          <mxGeometry x="200" y="-120" width="240" height="80" as="geometry" />
        </mxCell>
        <mxCell id="hjdBpJjyIPGbq1nmFeGQ-3" value="" style="rounded=0;whiteSpace=wrap;html=1;fillColor=#f5f5f5;fontColor=#333333;strokeColor=none;" vertex="1" parent="1">
          <mxGeometry x="-120" y="-30" width="240" height="330" as="geometry" />
        </mxCell>
        <mxCell id="hjdBpJjyIPGbq1nmFeGQ-5" value="&lt;p&gt;Lorem ipsum dolor sit amet, consectetur adipisicing elit, sed do eiusmod tempor incididunt ut labore et dolore magna aliqua.&lt;/p&gt;" style="text;html=1;whiteSpace=wrap;overflow=hidden;rounded=0;" vertex="1" parent="1">
          <mxGeometry x="-110" y="-30" width="180" height="120" as="geometry" />
        </mxCell>
      </root>
    </mxGraphModel>
  </diagram>
</mxfile>
